<?xml version="1.0" encoding="UTF-8" standalone="no"?>
<!DOCTYPE svg PUBLIC "-//W3C//DTD SVG 1.1//EN" "http://www.w3.org/Graphics/SVG/1.1/DTD/svg11.dtd">
<svg xmlns="http://www.w3.org/2000/svg" version="1.1" viewBox="0 0 512 512">
<path fill="#000000" d="
  M 380.29 183.66
  Q 379.00 182.36 377.67 183.70
  L 365.06 196.42
  A 1.80 1.75 -44.9 0 0 365.02 198.91
  L 395.04 229.16
  Q 396.86 231.00 394.28 231.00
  L 267.41 231.00
  A 0.73 0.72 -90.0 0 1 266.69 230.27
  L 267.06 67.72
  A 0.77 0.76 -13.0 0 1 267.50 67.03
  Q 318.92 42.23 376.00 42.92
  Q 415.61 43.40 453.50 56.75
  Q 457.53 58.17 460.86 59.63
  Q 464.83 61.37 467.65 63.59
  Q 480.00 73.26 480.00 89.75
  Q 480.00 272.18 480.00 454.60
  Q 480.00 460.95 478.54 463.64
  Q 475.50 469.25 467.25 469.25
  Q 255.87 469.25 44.50 469.25
  Q 36.49 469.25 33.51 463.77
  Q 32.00 460.99 32.00 453.98
  Q 32.00 274.49 32.00 94.99
  Q 32.00 84.14 33.46 79.16
  Q 37.62 64.94 52.06 59.06
  Q 94.45 41.82 142.75 42.57
  Q 197.02 43.41 245.24 67.83
  A 0.83 0.82 13.7 0 1 245.69 68.56
  L 245.31 230.44
  A 0.56 0.56 -0.0 0 1 244.75 231.00
  L 117.69 230.94
  Q 115.07 230.94 116.92 229.08
  L 147.55 198.33
  A 0.81 0.78 -45.2 0 0 147.57 197.20
  L 133.66 183.37
  A 1.12 1.07 -44.8 0 0 132.10 183.40
  L 74.24 241.26
  A 0.96 0.96 0.0 0 0 74.24 242.62
  L 131.83 300.45
  A 1.59 1.56 -44.9 0 0 134.06 300.43
  L 147.09 287.51
  A 1.61 1.59 -44.6 0 0 147.12 285.25
  L 116.31 253.93
  Q 115.45 253.06 116.67 253.06
  L 244.36 253.00
  A 0.89 0.89 -89.7 0 1 245.25 253.90
  Q 244.97 334.75 245.00 414.75
  Q 245.00 419.31 247.15 422.32
  Q 249.27 425.31 253.29 426.34
  Q 258.89 427.78 263.31 423.31
  Q 266.13 420.46 266.15 415.50
  Q 266.42 335.50 266.50 254.14
  A 1.14 1.14 -45.0 0 1 267.64 253.00
  L 394.76 253.00
  Q 396.63 253.00 395.33 254.32
  L 364.85 285.02
  A 1.74 1.70 -45.1 0 0 364.83 287.45
  L 377.81 300.44
  A 1.60 1.58 45.0 0 0 380.06 300.45
  L 437.95 242.42
  A 0.51 0.51 45.2 0 0 437.95 241.70
  L 380.29 183.66
  Z
  M 446.71 446.89
  Q 363.09 406.03 278.78 446.98
  Q 276.68 448.00 279.02 448.00
  L 446.46 448.00
  Q 448.99 448.00 446.71 446.89
  Z
  M 233.28 446.92
  Q 187.74 423.99 137.21 427.13
  Q 127.09 427.76 117.37 429.52
  Q 90.42 434.39 65.39 446.96
  Q 63.44 447.94 65.62 447.94
  L 233.03 448.00
  Q 235.42 448.00 233.28 446.92
  Z"
/>
</svg>
